<svg id="svg11" xmlns="http://www.w3.org/2000/svg" viewBox="0 0 152.2 204.14"><defs><style>.cls-1{fill:#7510f7;}.cls-2{fill:#333945;}.cls-3{fill:#f8b68e;}.cls-4{fill:#1c2025;}.cls-5{fill:#1c1e24;}.cls-6{fill:#17232f;}.cls-7{fill:#fbb68c;}.cls-8{fill:#322422;}.cls-9{fill:#47362f;}.cls-10{fill:#4d4e4e;}.cls-11{fill:#fab68a;}.cls-12{fill:#45352e;}.cls-13{fill:#ebeced;}.cls-14{fill:#ececeb;}.cls-15{fill:#f9b78d;}.cls-16{fill:#f7b78d;}.cls-17{fill:#ed9f70;}.cls-18{fill:#eb9f73;}.cls-19{fill:#e7e4e1;}.cls-20{fill:#312c28;}.cls-21{fill:#d1946d;}.cls-22{fill:#322520;}.cls-23{fill:#332421;}.cls-24{fill:#f49a6c;}.cls-25{fill:#6a1d2c;}.cls-26{fill:#f9f8f4;}.cls-27{fill:#faf9f7;}.cls-28{fill:#fcb68c;}.cls-29{fill:#46281d;}.cls-30{fill:#45281d;}.cls-31{fill:#ef9c6d;}.cls-32{fill:#f7f3ef;}.cls-33{fill:#be445b;}.cls-34{fill:#f2a474;}.cls-35{fill:#1e0d08;}.cls-36{fill:#21100b;}.cls-37{fill:#bf9477;}.cls-38{fill:#a48978;}.cls-39{fill:#9b7d68;}.cls-40{fill:#463530;}.cls-41{fill:#44342e;}.cls-42{fill:#43342f;}.cls-43{fill:#68544e;}.cls-44{fill:#66534e;}.cls-45{fill:#6a554d;}.cls-46{fill:#6096bf;}.cls-47{fill:#6daee0;}.cls-48{fill:#cdcbcb;}.cls-49{fill:#cdcbcc;}.cls-50{fill:#845f4e;}.cls-51{fill:#855f4c;}.cls-52{fill:#050302;}.cls-53{fill:#f0e4d8;}.cls-54{fill:#060503;}.cls-55{fill:#eae4dd;}</style></defs><g id="Circle"><g id="Circle-Background"><circle id="path-1" class="cls-1" cx="76.1" cy="108.34" r="76.1"/></g></g><path class="cls-2" d="M130.7,202c-.1,10.8.4,21.6.5,32.4v2.2H112.8a9.94,9.94,0,0,1-.5-5.1c.3-1.5,1.6-1,2.5-1.1.2,0,0-.2,0-.1s0,.1-.1,0c-2.8-.5-5.7-.2-8.5-.3-.8,0-1.4-.5-2.1-.4a2.77,2.77,0,0,1,.9.1c.2.1.5.1.5.4a.47.47,0,0,1-.5.5c-.6.1-1.3-.1-1.9.3a5.65,5.65,0,0,1,2.6-.2.85.85,0,0,1,.8.7c.1,1.7.5,3.4-.2,5.1h-17a1.13,1.13,0,0,1-.3-1.1c.3-2.6.4-5.2.6-7.8a7.53,7.53,0,0,1,2.9-6.2,6.93,6.93,0,0,0,2.4-4.7,7.8,7.8,0,0,1-4.1,5.5c-.5.3-1.3,1-1.7-.3a19.18,19.18,0,0,0,2.7-7.7c.1-1,.2-1.8-.8-2.4-.2-.1-.2-.3,0-.5,2.7-1.3,5.6-1.4,8.5-1.6,7.4-.6,14.7-1.4,21.8-3.7a20,20,0,0,0,7.3-3.6A3.08,3.08,0,0,1,130.7,202Z" transform="translate(-33.9 -32.56)"/><path class="cls-3" d="M90.9,211.6c1.1.1,1.4.8,1.3,1.8-.2,3.1-.8,6-2.9,8.5-.4.3-.2.6-.2,1,0,4.2.1,8.5-.1,12.7a1.1,1.1,0,0,1-.3.9h-.3V221.7a1.7,1.7,0,0,0-.1-.7c-1.3-1.8-1.8-4-3.3-5.7-.2-.7.4-1,.7-1.4a10.1,10.1,0,0,0,2.2-3.9c-.1-2.1,0-4.1,0-6.2a2.49,2.49,0,0,1,.3-1.7c.9,0,.7.7.8,1.2a35.3,35.3,0,0,1,0,4.6C89,209.7,89.2,211,90.9,211.6Z" transform="translate(-33.9 -32.56)"/><path class="cls-4" d="M106.3,236.6v-4.4c0-.8-.3-1.1-1.1-1.1-1-.1-2,.3-3.3.2a7.86,7.86,0,0,1,3.8-.8c-1.2-.8-2.3-.1-3-1,4.5.8,9.1-.5,13.6,1.1-.4.5-.8.1-1.1.1-1.9-.4-2.6.2-2.5,2.2,0,1.3.3,2.5.2,3.8h-1.4a3.71,3.71,0,0,1-.4-2.5c0-1-.5-1.2-1.4-1.2s-1.4.2-1.4,1.2a3.71,3.71,0,0,1-.4,2.5A8.08,8.08,0,0,0,106.3,236.6Z" transform="translate(-33.9 -32.56)"/><path class="cls-5" d="M88.7,236.6V222.5c0-.2-.4-1.3.6-.5,0,.3,0,.6.4.5a2.22,2.22,0,0,0,1.1-.5c2-1.5,3.8-3.1,3.9-5.8,0-.2.1-.3.2-.5a4.69,4.69,0,0,1-.4,3.2,10.82,10.82,0,0,1-3.7,4.7c-.4.3-.8.5-.7,1,.1,2.9-.7,5.7-.6,8.6.1,1.1-.4,2.2-.3,3.4Z" transform="translate(-33.9 -32.56)"/><path class="cls-6" d="M90.9,211.6c-2.1-.2-2.1-.3-2.2-2.4-.1-2.3.2-4.7-.1-7-1.2.1-1.7-.6-1.8-1.7-.6-5.3-1.1-10.5-1.6-15.8-.6-5.6-1-11.2-1.6-16.8a4.65,4.65,0,0,1,0-1.2,89.72,89.72,0,0,0-5.8,15.6,9.91,9.91,0,0,0,.1,5.4,75.49,75.49,0,0,0,5.9,13.7c1,1.9,2,3.8,3.1,5.6a3,3,0,0,1,.5,1.5,12.2,12.2,0,0,1-3,5.3,4.47,4.47,0,0,1-2.2,1.3c-.4.1-.6-.1-.8-.4a91.26,91.26,0,0,1-12.1-21.5,28.31,28.31,0,0,1-1.2-16.3c2.4-11.1,4.9-22.2,8.8-32.9a32.31,32.31,0,0,1,3.4-7,5.35,5.35,0,0,1,3-2.3l13.4-3.9c1.3.4,2.1,1.4,3.1,2.2,1.5,1.4,3.2,2.6,4.6,4,.6.6,1,.4,1.4-.2.9-1.4,1.7-2.9,2.6-4.3a3.25,3.25,0,0,1,1-1.3,1.1,1.1,0,0,1,.8,0c1.5,1.5,2.2,3.5,3.4,5.3.8,1.2.8,1.2,1.9.3,2-1.7,4-3.4,6-5.2.5-.4.9-1,1.7-.5a90.61,90.61,0,0,0,11.2,3.5,10.64,10.64,0,0,1,7.4,5.8,16.63,16.63,0,0,1,1.8,5.3,3.12,3.12,0,0,1-.3,2.5c-2.3,5.1-4.3,10.3-6.5,15.4-1.1,2.7-2.4,5.4-3.4,8.2-.6,1.7-.4,2.5,1.3,3.3,2.1,1,4.2,1.7,6.3,2.7a3.53,3.53,0,0,1,1.3.8,11.55,11.55,0,0,0,3.6,3.7,1.9,1.9,0,0,0,2.9-.3,4.39,4.39,0,0,1,1.8-1.2,2.43,2.43,0,0,0,1.5-1.3,5.38,5.38,0,0,1,.9-1.2c.8-.4.9-.1.7.6a19.84,19.84,0,0,1-2.5,5.3c-3.4,4.6-9.4,4.6-12.7-.1a25.47,25.47,0,0,1-3.2-6.9c-.1-.4-.1-1-.6-.9s-.3.7-.4,1c-.9,7.8-1.7,15.5-2.5,23.3-.1.6-.1,1.2-.8,1.4-2.6,1.2-4.8,3-7.5,4a66.16,66.16,0,0,1-9.7,2.6c-4,.7-8,1.2-12,1.6-2.3.2-4.6.5-6.9.6C93.2,210.8,92.2,211.9,90.9,211.6Z" transform="translate(-33.9 -32.56)"/><path class="cls-7" d="M110.1,131.5h-.8a2.75,2.75,0,0,1-2,.2,20.88,20.88,0,0,1-4.3-1.1c-1.7-.6-1.8-.8-1.8-2.5,0-.3.1-.5-.1-.8.1-1.8-.3-3.6-.3-5.4a1.8,1.8,0,0,0-.17-.79,2.09,2.09,0,0,0-1-.91A32.4,32.4,0,0,1,96,117.93c-.33-.26-.81-.65-1.37-1.13a38.85,38.85,0,0,1-5.78-5.73A31.33,31.33,0,0,1,83.7,100.8a34,34,0,0,1-.9-6.4c-.4-3.3-.3-6.7-1-10,0-.2-.1-.5,0-.7a15.46,15.46,0,0,0,.3-7.1c1-2.9,1.4-6,3.1-8.7a17.48,17.48,0,0,1,4.7-5.4,24.5,24.5,0,0,1,3.9.8,4.4,4.4,0,0,0,1.6.2,4.31,4.31,0,0,1,3.4,1,3.07,3.07,0,0,0,2.5.6,5.83,5.83,0,0,1,2.9.6c3.4,1.7,6.9,1.8,10.6,1.4,3.1-.4,6.2-1.2,9.3-1.6,5.5-.5,5.5-.2,7.8,4.8a5.56,5.56,0,0,0,.9,1.7c.1.1.1.3.2.5.1,1.6,0,3.1.1,4.7,0,2.4-.1,4.8.9,7.1a3,3,0,0,1,.2,1.3c-.8,3.8-.2,7.7-.2,11.6,0,5.94-1.22,8.83-3.2,11.4-.48.62-5.74,7.35-6,7.72a3.11,3.11,0,0,1-.27.39l-.16.19a13.77,13.77,0,0,1-4,2.8,2.51,2.51,0,0,0-1.5,2.4,56.73,56.73,0,0,1-.5,5.8,2.46,2.46,0,0,0-.1,1.2,1.08,1.08,0,0,1-.7,1.1,24.25,24.25,0,0,1-6.4,1.7A3.58,3.58,0,0,1,110.1,131.5Z" transform="translate(-33.9 -32.56)"/><path class="cls-8" d="M82.4,76.5a16.23,16.23,0,0,1-.3,7.9c.1,2.2-.2,4.4-.1,6.5a1.57,1.57,0,0,1-.4,1.3c-1,.1-1.2-.6-1.3-1.3a2.52,2.52,0,0,0,.1-1.5,21.55,21.55,0,0,1-1.1-7.6,8.57,8.57,0,0,1,.5-2.7,9.74,9.74,0,0,0,.5-4.2,14.25,14.25,0,0,1,.3-6.5c-1.3,1.9-1.2,4.1-.9,6.3a12.22,12.22,0,0,1-.2,5.7,4.18,4.18,0,0,1-.4,1c-.2.3-.3.6-.7.5s-.5-.4-.6-.7a25.22,25.22,0,0,1-1.1-6.1c-.1-1.9-.3-3.8.6-5.7a11.83,11.83,0,0,0-1.2,7.1c0,.5.3,1.1-.4,1.3s-.8-.5-1-.9c-.3-.6-.6-1.1-.9-1.7,2.2,4.6,4.5,9,6.4,13.7.2.4.5.8,0,1.3a.44.44,0,0,1-.5-.1,23.67,23.67,0,0,1-4-7.1c-2.3-4.5-4.6-9-5.7-13.9a16,16,0,0,1-.5-4.9,2.88,2.88,0,0,1,.3-1.6c1.2-1.4,1.1-3.1,1.2-4.8a5.5,5.5,0,0,1,1.1-3,5.49,5.49,0,0,0,1.2-3.7c.1-3.4,2.1-5.1,5.1-6A3.8,3.8,0,0,0,81,42.9a7.86,7.86,0,0,1,5.9-4.5,2.22,2.22,0,0,1,1.6.1c1.7.8,3,0,4.5-.7,4.9-2.2,9.6-4.9,15.1-5.2a21,21,0,0,1,13.3,3.9A52.21,52.21,0,0,1,129,43a16.61,16.61,0,0,0,1.4,1.3c2.5,2.3,4.6,1.7,5.6-1.7a3.89,3.89,0,0,1-.1,3,4.19,4.19,0,0,1-5.9,1,9.17,9.17,0,0,1-2.7-2.5,25.51,25.51,0,0,0-8.4-6.9,21.07,21.07,0,0,0-15.2-1.3,25,25,0,0,0-6.3,2.7c-.4.2-.8.4-1.1,0-.7-.7-1.4-.4-2.1.1a5.5,5.5,0,0,0-.9.7,6.8,6.8,0,0,1-4.6,2.1,7.06,7.06,0,0,0-2.4.6A4.85,4.85,0,0,0,82.7,47a15.16,15.16,0,0,0,1.7,6.3c.5,1.2,1.1,2.4,1.6,3.7-.8-3.4-.8-6.6.9-9.8a11.29,11.29,0,0,1,7.5-6,21.57,21.57,0,0,1,19.5,4.7c3.7,3.1,7.7,5.1,12.6,4.9a12.13,12.13,0,0,0,7.9-2.8c.4-.3.7-.8,1.3-.4a4.71,4.71,0,0,1,4.3,4.3c.1.6.5.8.9,1.1,2.8,1.9,3.5,3.9,2.2,7-.2.5-.2.6.3.9,2.3,1.4,3,3.5,2.4,6.2-1.2,4.2-2.2,8.5-4.6,12.2a11.78,11.78,0,0,1-1.7,2.2.8.8,0,0,1-1.1.2c-.4-.3-.2-.7-.1-1,.4-.9.9-1.7,1.3-2.6a23.12,23.12,0,0,0,2-13v-.6a23.47,23.47,0,0,1-2.1,11.3,4.83,4.83,0,0,1-1.4,2c-.7.6-1.1.5-1.3-.4,0-.2-.1-.5,0-.7A23.13,23.13,0,0,0,134.9,66c1.6,3.7,1.4,7.4.6,11.3-.5,2.3,0,4.6.2,6.8a23.53,23.53,0,0,1,.2,5.3,20.48,20.48,0,0,0-.5,2.4,1.34,1.34,0,0,1-.21.28,1,1,0,0,1-.41.22,3.8,3.8,0,0,1-.58-2.9,14.52,14.52,0,0,1-.2-3.6,8.58,8.58,0,0,0-.3-1.7,14,14,0,0,1-.8-6.7,27.83,27.83,0,0,0,0-5v-.3a5.63,5.63,0,0,1-.7-1.8,11.27,11.27,0,0,0-3.5-5.8,4.34,4.34,0,0,0-4.8-.9,34.4,34.4,0,0,1-10.5,2.1,7.57,7.57,0,0,1-1.5-.1c-1.8,0-3.6-.8-5.4-.2a3.52,3.52,0,0,1-2.4-.5c-3.6-1.8-4.9-4.5-4.1-8.2a5.59,5.59,0,0,1,4.5-4.1,16.26,16.26,0,0,1,6.9.9,25.93,25.93,0,0,0,16,.8c-5.9.5-10.8-1.7-15.6-4.4a65.35,65.35,0,0,1-5.6-3.5c-2.7-1.9-5.6-2.2-8.8-1.8a9.45,9.45,0,0,0-4.2,2.2,9,9,0,0,0-.5,12.5,17,17,0,0,0,4.2,3.3c.7.5.7.5.4.9a19.61,19.61,0,0,1-3.4-.1l-3.8-.9a18.92,18.92,0,0,1-2.3-.5c-2-.6-4.1-1-6.1-1.6a15.82,15.82,0,0,1-6-3.5,5.41,5.41,0,0,1-1.5-2.2c1.3,3,3.9,4.5,6.5,6.1.6.4,1.8.5,1.7,1.4s-1.3.9-2,1.1a9.8,9.8,0,0,1-4.5.2,18.15,18.15,0,0,0,7.7-.3c.8-.2,1.8-.6,2.1.7a2.28,2.28,0,0,1-.6,1.2,13.94,13.94,0,0,0-2.6,7C82.1,73.5,82.7,75,82.4,76.5Z" transform="translate(-33.9 -32.56)"/><path class="cls-9" d="M135.5,47.6c-1.5.8-2.6,2-4.3,2.6a16.13,16.13,0,0,1-10.4.3,20.36,20.36,0,0,1-7.5-4.4,19.58,19.58,0,0,0-10.2-4.7c-4.3-.8-8.6-.7-12.4,1.9a11,11,0,0,0-5,8.8,13.51,13.51,0,0,0,.9,6,.75.75,0,0,1-.9-.6c-1.3-2.9-3-5.7-3.5-8.9-.4-2.8.2-6.2,4.4-7,1.1-.2,2.1-.5,3.2-.6,1.5-.1,2.3-1.3,3.4-2.1a6,6,0,0,1,1.5-.9c.3-.1.8-.3.9-.1,1.5,1.8,2.6-.1,3.5-.6a23.74,23.74,0,0,1,9.3-2.4,20.87,20.87,0,0,1,10.9,2.3,32.39,32.39,0,0,1,8.4,7.2c1.4,1.6,3,2.9,5.4,2.8,1.2-.1,1.7-1.1,2.7-1.4C135.9,46.4,135,46.9,135.5,47.6Z" transform="translate(-33.9 -32.56)"/><path class="cls-10" d="M142,178.6c-2.3-1-4.7-2-7-3a8.11,8.11,0,0,1-1.8-1,2,2,0,0,1-.6-2.5c1.9-4.6,3.9-9.2,5.8-13.9,1.5-3.7,3.1-7.3,4.6-11,.2-.5.2-1.1.4-1.7.2.6.4.9,1.1.5a2.75,2.75,0,0,1,2.5,0c3.5,1.4,7,2.9,10.5,4.4a3,3,0,0,1,2.1,2.6c-1,3.1-2.4,6.1-3.6,9.1l-2.1,5.1c-.3.6-.5,1.2-1.2,1.4-.6,0-1-.3-1-.9,1.5-3.5,3-7,4.4-10.4.6-1.5.6-1.7-1-2.3-3.5-1.4-7-2.9-10.5-4.3-.6-.3-.8.1-1,.6-1.5,3.8-3.1,7.5-4.6,11.3-.9,2.4-2,4.7-3,7-.6,1.4-.5,1.6.9,2.2s3,1.2,4.6,1.8a7.22,7.22,0,0,1,2,.9C143.8,176.2,142.6,177.3,142,178.6Z" transform="translate(-33.9 -32.56)"/><path class="cls-11" d="M151.9,167.7c0,.5.3.7.8.8.7.1.8-.4,1-.9.5-1.4,1.2-2.7,1.7-4.1.1-.2.1-.6.5-.5,0,.1,0,.2.1.2,2,1.5,2.1,2,.6,4.1a2.09,2.09,0,0,1-.4.6c-1.4,1.9-1.4,1.9.3,3.3,1,.7.8,1.5.3,2.4-.8,1.3-1.9,2.3-2.6,3.7a4.35,4.35,0,0,1-.8,1.5c0-.9-.6-.7-.7-.2-.7,2.4-3.5,2.3-4.7,4.1-.4.6-1.3.5-1.9.1a9.21,9.21,0,0,1-4.3-4.2,2,2,0,0,1,.4-1.5,3.4,3.4,0,0,0,.8-2.6,1.15,1.15,0,0,1,.6-.9,3.09,3.09,0,0,0,1.3-2,2.9,2.9,0,0,1,.9-1.5,5.41,5.41,0,0,0,1.5-2.2,1.76,1.76,0,0,1,.4-.5c.5-.5,1-1,1.8-.8A9,9,0,0,1,151.9,167.7Z" transform="translate(-33.9 -32.56)"/><path class="cls-12" d="M135.1,91.8c-.5-1.2.4-2.2.4-3.4s-.1-2.6-.2-3.9c-.3-2.9-.7-5.7,0-8.7a17,17,0,0,0-.9-10.2c-.1-.3-.6-.7-.1-.9s.6.4.7.7a24.37,24.37,0,0,1,2.1,10.3,7.49,7.49,0,0,0,.2,2.1c3.5-4.2,4-9.2,3.9-14.3a3.29,3.29,0,0,1,.8,2.3,23.77,23.77,0,0,1-3.5,14.8c-.1.2-.5.6-.1.8s.5-.1.6-.3a25.1,25.1,0,0,0,4.2-7.7c.7-2.2,1-4.5,2.4-6.4a28.35,28.35,0,0,1-2.3,9.1c-1,2.5-2.2,4.9-3.3,7.4-.2,1.6-1.3,2.7-1.9,4a23.29,23.29,0,0,1-2,3.4C135.9,91.4,135.8,92,135.1,91.8Z" transform="translate(-33.9 -32.56)"/><path class="cls-13" d="M110.1,131.5a34.73,34.73,0,0,0,7.1-1.6c1.2-.4.6-1.5,1.2-2-.3,1.6.9,2,2,2.2.7.1,1.4.6,2.2.4.5-.1.2.6.5.8-.6,0-.9.4-1.3.7-2.3,1.9-4.6,3.9-6.9,5.9-.6.5-.9.5-1.3-.2C112.5,135.5,111.3,133.5,110.1,131.5Z" transform="translate(-33.9 -32.56)"/><path class="cls-14" d="M101.1,127.3c0,2.5,1.8,3,3.7,3.5a23.21,23.21,0,0,0,4.6.7c-1.2,2-2.4,4.1-3.6,6.1-.4.6-.6.6-1.1.2-2.6-2.3-5.3-4.6-8-6.9a4,4,0,0,1,2.3-1C101.1,129.4,101.1,129.4,101.1,127.3Z" transform="translate(-33.9 -32.56)"/><path class="cls-15" d="M135.1,91.8a72,72,0,0,0,4.2-7c.2-.4.5-.8.7-1.2,1.3,2,.9,4.1.6,6.2-.6,3.6-1.3,7.2-4.4,9.6a4.57,4.57,0,0,0-1.6,1.5c-.4-.4-.2-.9-.1-1.3a8,8,0,0,0,.3-1.5,4,4,0,0,1,1.5-3.9,3.47,3.47,0,0,0,1-2.2,3.84,3.84,0,0,1-1.1,2.3.87.87,0,0,1-.9.5c-.5-.1-.6-.6-.6-1a4.82,4.82,0,0,1,0-1.2,1.49,1.49,0,0,1,.17-.41,1.55,1.55,0,0,0,.15-.25A1,1,0,0,1,135.1,91.8Z" transform="translate(-33.9 -32.56)"/><path class="cls-16" d="M80.5,90.8c.1.6.6.9.8,1.3a.91.91,0,0,1,.3.7c0,.4.1,1-.4,1.2s-.8-.3-1-.6-.6-.7-.6-1A3.85,3.85,0,0,0,80.9,94a2.67,2.67,0,0,1,1.3,2.1,9.83,9.83,0,0,0,.7,3.4,1.08,1.08,0,0,1-.2,1.3,4.07,4.07,0,0,0-1.9-2.2,9.82,9.82,0,0,1-3.9-5.1,24.94,24.94,0,0,1-1.7-8.1,10,10,0,0,1,.4-2.4c1.5,2.4,2.7,4.9,4.4,7.1A1.16,1.16,0,0,1,80.5,90.8Z" transform="translate(-33.9 -32.56)"/><path class="cls-17" d="M82.7,100.9c-.3-1.9-.9-3.7-1.1-5.5-.1-.6-.5-.8-.9-1.1a2.42,2.42,0,0,1-1.2-2.5,16.24,16.24,0,0,0,1.8,2.3V92.2c.4-1.5.1-3.1.3-4.7a11.15,11.15,0,0,1,.5-3.1,10.66,10.66,0,0,1,.6,3c.4,4.7.3,9.4,1.7,14a20,20,0,0,0,3.3,6.9,44.77,44.77,0,0,0,3.2,4.4,26.08,26.08,0,0,0,4.6,4.2c.7.5.7.5.4,1a18.85,18.85,0,0,1-4.4-3.5,35.69,35.69,0,0,1-2.7-2.8A24.94,24.94,0,0,1,82.7,100.9Z" transform="translate(-33.9 -32.56)"/><path class="cls-18" d="M134.9,92.6c0,.3.1.5.1.8s-.4,1,.2,1.2.8-.5,1-.9a8,8,0,0,0,1.1-2.5,3.94,3.94,0,0,1-1.3,3.7,2,2,0,0,0-.9,2.1,10.28,10.28,0,0,1-.6,3.9,29.94,29.94,0,0,1-4.9,10.5,30.26,30.26,0,0,1-5.13,5.42,9,9,0,0,1-1.13,1.09,11.44,11.44,0,0,1,1.21-1.52A39.87,39.87,0,0,0,128.8,111a23.79,23.79,0,0,0,2.1-3.6c1.7-3.8,2.9-7.7,2.6-12-.2-2.2.1-4.4-.2-6.7-.2-1,.3-2,.5-3.1a14.87,14.87,0,0,1,.5,3.6,7.54,7.54,0,0,0,.15,2A6.82,6.82,0,0,0,134.9,92.6Z" transform="translate(-33.9 -32.56)"/><path class="cls-19" d="M82.2,215.2a12,12,0,0,0,4.9-6.4c.4.7,1.1,1.1,1.4,1.9a22.09,22.09,0,0,1-3.3,4.7C84.1,215.9,83.2,215.1,82.2,215.2Z" transform="translate(-33.9 -32.56)"/><path class="cls-20" d="M156,163c-.7,1.7-1.5,3.5-2.2,5.2-.3.7-.5.9-1.1.3,1.2-1.5,1.7-3.4,2.5-5.1,1.6-3.4,2.6-7,4.4-10.3a3.08,3.08,0,0,1-.4,2.1C158.1,157.8,157,160.4,156,163Z" transform="translate(-33.9 -32.56)"/><path class="cls-21" d="M104.1,64.7a4,4,0,0,0,3,.3,2.77,2.77,0,0,1,1.3-.1,26.71,26.71,0,0,0,14-1.2c3.9-1.3,4.7-1.3,7.8,2.2a10,10,0,0,1,2.4,6.3c-1.4-.5-.9-2-1.7-2.9-.6-.7-.9-1.6-1.4-2.3a2.26,2.26,0,0,0-2.1-1.1,38.85,38.85,0,0,0-9.6,1.2,27.86,27.86,0,0,1-11.5.1,3.55,3.55,0,0,1-.9-.4,8.61,8.61,0,0,0-5.2-1.3,2,2,0,0,1-1.5-.5c-1.2-1.5-2.7-1.1-4.2-1.1a1.49,1.49,0,0,1-.9-.2c1.2,0,2.4,0,3.6-.1a.92.92,0,0,1,1.1-.1,9.94,9.94,0,0,0,5.1,1A.84.84,0,0,1,104.1,64.7Z" transform="translate(-33.9 -32.56)"/><path class="cls-22" d="M99.9,71.6a5.54,5.54,0,0,1,1.7,3.7c.1.8-.2,1.2-1.1,1a19.59,19.59,0,0,0-4.8-.5c-3.7,0-6.8,1.5-9.7,3.7-.3.2-.5.6-1.1.7,1.7-4.7,5.1-7.2,9.9-8,1.4-.2,3-.7,4.4.6C99.9,73.3,99.8,72.2,99.9,71.6Z" transform="translate(-33.9 -32.56)"/><path class="cls-23" d="M118,72c.2.4.1.8.6,1.1.6-.8,1.4-.7,2.3-.5,5.5,1.2,9.4,5.2,10,10.6-.5.1-.5-.4-.7-.7a15.92,15.92,0,0,0-13-6.4c-1.6,0-1.8-.3-1.1-1.8A3.88,3.88,0,0,1,118,72Z" transform="translate(-33.9 -32.56)"/><path class="cls-24" d="M107.42,124.88a1.94,1.94,0,0,1-.85-.19,1.91,1.91,0,0,1-.57-.39,7.5,7.5,0,0,0-1.36-1,7.76,7.76,0,0,0-1.64-.7,17,17,0,0,1-1.4-1c-.2-.2-.5-.4-.3-.7a.47.47,0,0,1,.8-.1,12.13,12.13,0,0,0,3.2,1.1,17.41,17.41,0,0,0,11.9-1c.4-.2.9-.6,1.3-.3s.2.9.1,1.4a4.58,4.58,0,0,0-.1,2,2,2,0,0,1-1.7,2.4c-1.08,0-2.23-.13-3.45-.28A39.67,39.67,0,0,1,107.42,124.88Z" transform="translate(-33.9 -32.56)"/><path class="cls-25" d="M104.1,110.6c-2.7-1.4-4.3-3.8-6.3-6.2a9.35,9.35,0,0,1,2.5.4,1.8,1.8,0,0,0,.9.4,9.38,9.38,0,0,0,7,2.2c1.3-.1,2.6-.1,3.9-.1,2.7,0,4.8-1.4,6.9-2.8a6.34,6.34,0,0,1,2.3-1.6c-.4,1.7-3.3,5.3-5.5,6.8a11.94,11.94,0,0,1-4.2-.3,13.45,13.45,0,0,0-6.6.9A1.22,1.22,0,0,1,104.1,110.6Z" transform="translate(-33.9 -32.56)"/><path class="cls-26" d="M124.4,91.9a14.65,14.65,0,0,1-8.3.3c-2.3-.6-2.3-.6-2-2.9a8.09,8.09,0,0,1,.1-1.48,7.66,7.66,0,0,1,.8-2.32,7.85,7.85,0,0,0,.4,2.2,5.68,5.68,0,0,0,2.38,3.37,5,5,0,0,0,2.22.63,4.6,4.6,0,0,0,4.7-3.8c.7-2.8-2-5.8-5.1-5.4a6.75,6.75,0,0,1-1.4.2c-.7-.1-.6-.4-.2-.8a2.57,2.57,0,0,1,1.2-.5c1.8,0,3.7-.1,5.3.8,2.8,1.4,3.8,5,2.9,8.3A4.07,4.07,0,0,1,124.4,91.9Z" transform="translate(-33.9 -32.56)"/><path class="cls-27" d="M100.9,88.8a5.9,5.9,0,0,1,.4-.8q.3,1.65.6,3c.2,1-.2,1.5-1.2,1.7a17.46,17.46,0,0,1-8.5,0,5.82,5.82,0,0,1-3.5-1.5c-1-2.9-.4-6.4,1.9-8.1,1.5-1.1,3.2-1,4.9-1.2.2,0,.5.1.5.3,0,.5-.5.5-.8.7-2.9,1.1-4.2,2.7-4,5.2a4.89,4.89,0,0,0,3.3,4.1,4.68,4.68,0,0,0,5.3-2.1C100.2,89.6,100.3,89,100.9,88.8Z" transform="translate(-33.9 -32.56)"/><path class="cls-28" d="M107.33,124.89a40.64,40.64,0,0,0,4.68,1,39.16,39.16,0,0,0,4.69.46v1.2c-.1.4-.3.7-.7.3-1.1-.9-2.5-.3-3.7-.5-.3,0-.6.1-.6.4s.2.5.5.7,1.1.1.8.8-1,1.3-1.5,1c-.9-.6-1.7,0-2.5-.1-.5-.1-1.1,0-1.6-.1-1.6-.3-1.6-.3-.6-1.5a1.39,1.39,0,0,0,0-1.9,1,1,0,0,1-.76-1,1,1,0,0,1,.92-.85A.86.86,0,0,1,107.33,124.89Z" transform="translate(-33.9 -32.56)"/><path class="cls-29" d="M118.2,82s0,.06-.14.15-.15.22-.12.27.39,0,.46,0a5,5,0,0,1,4.6.6,5,5,0,0,1,1.9,5.9,4.8,4.8,0,0,1-.91,1.55,5.2,5.2,0,0,1-4.49,1.65,5.41,5.41,0,0,1-4.41-4.35,6.69,6.69,0,0,1-.14-1,6.92,6.92,0,0,1,0-1.25,7.61,7.61,0,0,1,2.8-3.8C118.14,81.85,118.21,81.94,118.2,82Z" transform="translate(-33.9 -32.56)"/><path class="cls-30" d="M101.12,88.83a5.79,5.79,0,0,1-2.68,3.34,5.33,5.33,0,0,1-2.54.63,5.13,5.13,0,0,1-4.8-3.6c-.8-2.9.7-5.4,4-6.4a5.32,5.32,0,0,1,3.3.1l.5-.1a8.28,8.28,0,0,1,2.4,3.7,4.9,4.9,0,0,1,.08,1.16A4.55,4.55,0,0,1,101.12,88.83Z" transform="translate(-33.9 -32.56)"/><path class="cls-31" d="M82.4,76.5a13.62,13.62,0,0,1,2.1-11.4c.3-.4.6-.9.9-1.3a3.19,3.19,0,0,1,2.3-1.9c.9-.2,1.5.4,2.2.7A21.14,21.14,0,0,0,83,75.1C82.9,75.7,82.4,76,82.4,76.5Z" transform="translate(-33.9 -32.56)"/><path class="cls-32" d="M119.1,104.5a8.45,8.45,0,0,1-6,3.1,40.12,40.12,0,0,1-6,.2,9,9,0,0,1-6.2-2.5c.2-.8.7-.3.9-.2a33,33,0,0,0,7.7.8,27.4,27.4,0,0,0,6.9-1,3.64,3.64,0,0,1,1.5-.2C118.2,104.6,118.6,104.6,119.1,104.5Z" transform="translate(-33.9 -32.56)"/><path class="cls-33" d="M104.1,110.6a8.71,8.71,0,0,1,5.8-1.6,17.34,17.34,0,0,1,6,.7C113,112.1,107,112.5,104.1,110.6Z" transform="translate(-33.9 -32.56)"/><path class="cls-34" d="M109.1,99.6a6.85,6.85,0,0,1-3.4-1.1c-.6-.5-.6-.9.1-1.2a7,7,0,0,1,6.3-.1c.9.5,1,1,.2,1.6A7.22,7.22,0,0,1,109.1,99.6Z" transform="translate(-33.9 -32.56)"/><path class="cls-35" d="M98.9,82.8l-.3.3a11.5,11.5,0,0,1-1.7-.6,6.57,6.57,0,0,0-6.6.9,5.17,5.17,0,0,0-2,4.2c-.1,1.1.2,2.3,0,3.4-.1.1-.2.2-.4,0-1-1.2-.6-2.6-.5-3.9.3-2.6,1.5-4.6,4.1-5.5S96.7,80.7,98.9,82.8Z" transform="translate(-33.9 -32.56)"/><path class="cls-36" d="M118.2,82a1.38,1.38,0,0,0-.4-.3,7.58,7.58,0,0,1,8.3.2,7.92,7.92,0,0,1,2.4,7.9,1.34,1.34,0,0,1-.6.7.25.25,0,0,1-.4-.1c-.1-1.3.3-2.7,0-4.1a6.21,6.21,0,0,0-2-3.64A6.13,6.13,0,0,0,122,81.4a7.42,7.42,0,0,0-2.88.32l-.44.12C118.51,81.89,118.35,81.94,118.2,82Z" transform="translate(-33.9 -32.56)"/><path class="cls-37" d="M117.8,104.7a30.77,30.77,0,0,1-16.2.6c-.2-.1-.5-.3-.7,0-.3,0-.4-.3-.6-.5,3.2.2,6.4,1.1,9.7.8a27.45,27.45,0,0,0,6.4-.9C116.9,104.5,117.4,104.3,117.8,104.7Z" transform="translate(-33.9 -32.56)"/><path class="cls-28" d="M103,122.6a9,9,0,0,1,3,1.7c-.1.6-.4.6-1,.6-1.3,0-1.5-1.5-2.5-1.8C102.4,123,102.7,122.7,103,122.6Z" transform="translate(-33.9 -32.56)"/><path class="cls-28" d="M104.4,127.9a.8.8,0,0,1-.9.7c-.4,0-1.5-1.5-1.4-1.9s.3-.4.5-.3C103.2,126.9,104.1,127,104.4,127.9Z" transform="translate(-33.9 -32.56)"/><path class="cls-38" d="M87.9,91h.4c.4-.3.5.1.8.2a18.67,18.67,0,0,0,3.2,1.5C90.5,92.9,89.2,92,87.9,91Z" transform="translate(-33.9 -32.56)"/><path class="cls-39" d="M127.7,90.5l.17,0a1.24,1.24,0,0,0,.47-.34,4.45,4.45,0,0,1-2,1.53,4.35,4.35,0,0,1-1.95.26,7.86,7.86,0,0,0,1.85-.64,6.82,6.82,0,0,0,1-.56.65.65,0,0,1,.29-.19A.52.52,0,0,1,127.7,90.5Z" transform="translate(-33.9 -32.56)"/><path class="cls-21" d="M132.7,72.3a10.57,10.57,0,0,1,0,5Z" transform="translate(-33.9 -32.56)"/><path class="cls-9" d="M104.1,64.7c-1.5,0-3,.6-4.5-.2a5,5,0,0,0-2.4-.9,3.51,3.51,0,0,0-.8-.5c0-.5-.5-.6-.8-.8-4.5-3.6-5.8-6.7-4.6-12,.5-2.4,2.3-3.7,4.3-4.8.6-.3,1.2-.3,1.7-.8a10.74,10.74,0,0,1,8.7,1.5c4.3,2.8,8.6,5.6,13.5,7.2a19.1,19.1,0,0,0,7.1,1,2.75,2.75,0,0,1,1.9.4,24.69,24.69,0,0,1-10,1.1c-3.5-.3-6.7-1.6-10-2.4a7.56,7.56,0,0,0-4.7.1,5.73,5.73,0,0,0-2,9.4A11.67,11.67,0,0,0,104.1,64.7Z" transform="translate(-33.9 -32.56)"/><path class="cls-40" d="M131.9,58.3a18.05,18.05,0,0,0,5.3-2.4c-.4,1.4-1.7,2.1-2.7,2.8a10.52,10.52,0,0,1-6.2,2.1,93.57,93.57,0,0,1-12.9-1.1,12.09,12.09,0,0,0-5,.6,3.21,3.21,0,0,0-2.4,2.9c0,.3,0,.7-.5.7-.3,0-.3-.4-.4-.7-1.1-4.3,2.2-5.7,5.5-5.7,2,0,4.1.3,6.1.5.2,0,.3.2.5.2.2.5.6.3.9.4a42.3,42.3,0,0,0,8.7.4A3.82,3.82,0,0,0,131.9,58.3Z" transform="translate(-33.9 -32.56)"/><path class="cls-41" d="M80.5,90.8c-.1-.2-.3-.4-.4-.6.4-.7-.3-1.1-.5-1.5-1.1-2.6-2.1-5.3-3.4-7.7-1.2-2-1.7-4.2-3-6a1,1,0,0,1,.1-.9l2.1,3.6c-.1-3.2-.2-6.4,2.1-9.1-1.4,4.5-.5,8.8.6,13.5a7.44,7.44,0,0,0,1.3-4.9c-.1-2.3-.7-4.6-.1-6.9a27.18,27.18,0,0,1,1.1-2.5c.1-.3.3-.5.6-.4s.3.5.2.7c-1.4,2.4-.8,4.9-.5,7.4a6.75,6.75,0,0,1-.4,3.2c-1.2,2.7-.6,5.4-.2,8a5.94,5.94,0,0,0,.7,2.6C81.1,90.1,80.9,90.5,80.5,90.8Z" transform="translate(-33.9 -32.56)"/><path class="cls-42" d="M87.7,61.9c-.8.6-1.5,1.2-2.3,1.9-.4-.7-1.1-.5-1.7-.4a16.33,16.33,0,0,1-8.2.4c-.4-.1-.7-.1-1-.9,2.7.4,5.2.5,7.7-.8-3.5-2.1-7.4-3.8-8.8-8.2.6-.1.7.2.8.4,1.6,3.3,4.5,4.8,7.8,5.9C83.8,61,85.9,61.1,87.7,61.9Z" transform="translate(-33.9 -32.56)"/><path class="cls-43" d="M97,44.6c-.7,1.1-2,1.1-3,1.8a7.82,7.82,0,0,0-3.1,6.1c-.3,4.4,2,7.3,5.3,9.7.5.3.5.3.3.8a14.11,14.11,0,0,1-5.4-4.9A9.12,9.12,0,0,1,97,44.6Z" transform="translate(-33.9 -32.56)"/><path class="cls-44" d="M131.9,58.3c-.4,1.1-1.5.9-2.2,1a37.12,37.12,0,0,1-10.5-.6c-.1,0-.6.1-.3-.3,0-.1.3,0,.4,0C123.4,58.8,127.6,59.4,131.9,58.3Z" transform="translate(-33.9 -32.56)"/><path class="cls-45" d="M100.3,39.5a20.74,20.74,0,0,1,11.6,2.3c2.9,1.5,5.1,3.7,7.7,5.6a10.51,10.51,0,0,0,8.4,2,2,2,0,0,1,1.5.1c0,.2-.2.3-.4.4-4.3.4-8.4-.2-12.1-2.9-2-1.5-4-2.8-6-4.2a17,17,0,0,0-10-3C100.8,39.6,100.7,39.6,100.3,39.5Z" transform="translate(-33.9 -32.56)"/><path class="cls-46" d="M147.8,167.9a3.25,3.25,0,0,1-1.2,2.2,3.37,3.37,0,0,0-1.3,2.3c-.1,1.2-1.4,1.3-2,2.1a68.29,68.29,0,0,1-7.5-2.9c-.9-.4-.5-1-.3-1.6,1.2-2.9,2.5-5.9,3.7-8.8,1.4-3.4,2.8-6.7,4.2-10.1.2-.6.3-1.5,1.3-.7a3.42,3.42,0,0,0-.1,2c.8,4.8,1.7,9.6,2.4,14.4C147.1,167.3,147.2,167.8,147.8,167.9Z" transform="translate(-33.9 -32.56)"/><path class="cls-47" d="M147.8,167.9c-.6.6-1,.3-1-.4-.2-3.1-1-6.1-1.4-9.1-.3-2.3-.8-4.5-1.1-6.8-.1-.4-.5-1.2.6-1.2,3.8,1.6,7.5,3.1,11.3,4.6,1,.4,1.2.8.7,1.8-1.4,3.1-2.6,6.2-3.9,9.4a3.77,3.77,0,0,1-.9,1.5,2.62,2.62,0,0,1-2.2-.9c-.9-.5-1.2.4-1.6.8C147.9,167.7,147.8,167.8,147.8,167.9Z" transform="translate(-33.9 -32.56)"/><path class="cls-46" d="M148,167.6c.4-.5.5-1.8,1.6-.8C149,166.7,148.6,167.4,148,167.6Z" transform="translate(-33.9 -32.56)"/><path class="cls-48" d="M127.7,90.5a.6.6,0,0,0-.4.1,18.84,18.84,0,0,0,.2-3.4,6.41,6.41,0,0,0-1.87-4,7.17,7.17,0,0,0-4.53-1.48,12.17,12.17,0,0,0-1.91,0,6.33,6.33,0,0,1,9.11,5.71A6.86,6.86,0,0,1,127.7,90.5Z" transform="translate(-33.9 -32.56)"/><path class="cls-49" d="M89.1,91.2a5.07,5.07,0,0,0-.5-.14L88.2,91A7.43,7.43,0,0,1,88,86.66a7,7,0,0,1,2-3.46c2-1.75,5.49-1.8,8.56-.11a6.47,6.47,0,0,0-1.76-.38,6.27,6.27,0,0,0-1.78.11l.4-.16A5.75,5.75,0,0,1,96,82.5a6.6,6.6,0,0,0-5.91,1.72A6.23,6.23,0,0,0,89.1,91.2Z" transform="translate(-33.9 -32.56)"/><path class="cls-50" d="M115.6,87a3.65,3.65,0,0,1,3.9-4,3.81,3.81,0,0,1,3.9,4,4.14,4.14,0,0,1-4,4C117.7,91,115.3,89.3,115.6,87Z" transform="translate(-33.9 -32.56)"/><path class="cls-51" d="M96.5,91.6a4,4,0,0,1-4-3.9,4.24,4.24,0,0,1,4-4.1,4,4,0,0,1,4,4A3.78,3.78,0,0,1,96.5,91.6Z" transform="translate(-33.9 -32.56)"/><path class="cls-52" d="M121.1,86.1c.1,1.3,0,2.6-1.5,3.2a2.43,2.43,0,1,1,.5-4.2,9.43,9.43,0,0,1,1,1Z" transform="translate(-33.9 -32.56)"/><path class="cls-53" d="M121.1,86.1c0-.5,0-1.1.7-1a.55.55,0,0,1,.5.8c-.2.7-.7.5-1.2.2Z" transform="translate(-33.9 -32.56)"/><path class="cls-54" d="M99.7,87.2a2.42,2.42,0,0,1-1.4,2.7,2.13,2.13,0,0,1-2.3-.2,2.29,2.29,0,0,1-1-2.4,2,2,0,0,1,1.5-1.9,1.88,1.88,0,0,1,2.4.6A12.49,12.49,0,0,0,99.7,87.2Z" transform="translate(-33.9 -32.56)"/><path class="cls-55" d="M99.7,87.2c-.8,0-1.1-.4-.8-1.1.4-.2.7-.4,1,.1S100,86.9,99.7,87.2Z" transform="translate(-33.9 -32.56)"/><path class="cls-49" d="M99,82.94" transform="translate(-33.9 -32.56)"/></svg>