<svg width="51" height="52" viewBox="0 0 51 52" fill="none" xmlns="http://www.w3.org/2000/svg">
<path opacity="0.992" fill-rule="evenodd" clip-rule="evenodd" d="M7.546 0.0288729C19.3004 0.028874 31.5385 -0.0360912 43.5346 0.0288727C47.8155 0.223764 51.0806 4.38145 50.9355 6.59023C51.0806 19.3881 50.9355 32.5108 50.9355 45.3737C50.0406 48.9467 48.1058 51.4803 43.6072 52C31.6352 52 19.518 52 7.546 52C3.91812 51.4153 0.580462 49.9861 0.0725577 45.5686C-0.0725577 23.4159 0.0725577 20.4925 0 8.14936C0.385717 3.83602 3.99067 0.158802 7.546 0.0288729ZM9.14227 6.52526C19.9776 6.50357 30.9822 6.52526 41.7933 6.52526C42.8816 6.63349 43.8491 7.23987 43.97 8.21433C43.97 9.25375 43.97 10.2932 43.97 11.3326C43.8491 12.3071 42.8816 12.9134 41.7933 13.0217C31.2393 12.7752 23.2338 16.5864 17.7766 24.5852C15.7 28.06 14.6117 31.763 14.5115 35.6941C14.5115 38.3576 14.5115 42.1904 14.5115 43.8145C14.5115 44.854 13.8585 45.5036 12.7702 45.5036C11.8995 45.5036 9.86785 45.5036 9.14227 45.5036C8.26856 45.5036 7.47344 44.724 7.40089 43.8145C7.40089 42.3204 7.33616 38.6663 7.47344 35.759C7.68662 26.5217 11.7258 18.8993 19.5906 13.0217C16.1804 13.0217 12.5525 13.0217 9.14227 13.0217C7.76354 13.0217 7.40089 12.372 7.40089 11.3326C7.40089 10.2932 7.40089 9.25375 7.40089 8.21433C7.40089 7.10994 7.69112 6.52817 9.14227 6.52526ZM40.7049 19.2582C44.2632 19.2582 43.97 21.337 43.97 22.7662C43.97 23.5539 44.0425 24.3903 43.8249 25.0318C43.6072 25.6733 42.5188 25.8195 42.5188 25.8195C42.5188 25.8195 34.8841 26.1444 32.1431 28.8728C30.1958 30.8112 29.1559 33.085 29.0231 35.6941C28.9669 36.7984 29.0231 37.9028 29.1682 39.0072C31.5868 39.0072 34.0053 39.0072 36.424 39.0072C36.424 37.643 36.3514 34.7196 36.4965 34.3217C37.1591 32.5049 39.0361 32.519 40.9226 32.5108C43.6798 32.5108 43.8329 33.1239 43.8974 33.6152C44.0425 34.7196 43.97 40.6963 43.97 44.2693C43.97 45.8284 43.0993 45.4386 41.7933 45.5036C38.7942 45.5253 35.7952 45.4819 32.7961 45.5036C29.5494 45.5218 24.0892 45.5036 23.0008 45.4386C22.0383 45.3812 22.002 44.5164 21.985 43.8145C21.8259 40.1694 21.9227 36.5314 22.2752 32.9006C23.6628 27.0161 27.46 22.9233 33.6668 20.6224C35.753 19.9585 38.8909 19.2582 40.7049 19.2582Z" fill="url(#paint0_linear_1_4)"/>
<defs>
<linearGradient id="paint0_linear_1_4" x1="25.5" y1="0" x2="25.5" y2="52" gradientUnits="userSpaceOnUse">
<stop stop-color="#5C3469"/>
<stop offset="1" stop-color="#1A0D14"/>
</linearGradient>
</defs>
</svg>
